<svg width="24" height="24" viewBox="0 0 24 24" fill="none" xmlns="http://www.w3.org/2000/svg">
<path d="M7.99834 2.4C4.91114 2.4 2.3999 4.91356 2.3999 8.00156V16.0016C2.3999 19.0888 4.91347 21.6 8.00146 21.6H16.0015C19.0887 21.6 21.5999 19.0864 21.5999 15.9984V7.99844C21.5999 4.91124 19.0863 2.4 15.9983 2.4H7.99834ZM17.5999 5.6C18.0415 5.6 18.3999 5.9584 18.3999 6.4C18.3999 6.8416 18.0415 7.2 17.5999 7.2C17.1583 7.2 16.7999 6.8416 16.7999 6.4C16.7999 5.9584 17.1583 5.6 17.5999 5.6ZM11.9999 7.2C14.6471 7.2 16.7999 9.3528 16.7999 12C16.7999 14.6472 14.6471 16.8 11.9999 16.8C9.3527 16.8 7.1999 14.6472 7.1999 12C7.1999 9.3528 9.3527 7.2 11.9999 7.2ZM11.9999 8.8C11.1512 8.8 10.3373 9.13714 9.73716 9.73726C9.13704 10.3374 8.7999 11.1513 8.7999 12C8.7999 12.8487 9.13704 13.6626 9.73716 14.2627C10.3373 14.8629 11.1512 15.2 11.9999 15.2C12.8486 15.2 13.6625 14.8629 14.2626 14.2627C14.8628 13.6626 15.1999 12.8487 15.1999 12C15.1999 11.1513 14.8628 10.3374 14.2626 9.73726C13.6625 9.13714 12.8486 8.8 11.9999 8.8Z" fill="white"/>
</svg>
