<svg width="24" height="24" viewBox="0 0 24 24" fill="none" xmlns="http://www.w3.org/2000/svg">
<path fill-rule="evenodd" clip-rule="evenodd" d="M2.99991 5.25006C2.99991 4.00806 4.00791 3.00006 5.24991 3.00006C6.49191 3.00006 7.49991 4.00806 7.49991 5.25006C7.49991 6.49206 6.49191 7.50006 5.24991 7.50006C4.00791 7.50006 2.99991 6.49206 2.99991 5.25006ZM15.1503 8.40046C11.9193 8.40046 9.29931 11.0045 9.29931 14.2145V20.0995C9.29931 20.5965 9.70331 21.0005 10.2003 21.0005H12.2993C12.7963 21.0005 13.2003 20.5965 13.2003 20.0995V14.2145C13.2003 13.0785 14.1843 12.1705 15.3523 12.2875C16.3663 12.3885 17.0993 13.3155 17.0993 14.3345V20.0995C17.0993 20.5965 17.5033 21.0005 18.0003 21.0005H20.0993C20.5963 21.0005 21.0003 20.5965 21.0003 20.0995V14.2145C21.0003 11.0045 18.3803 8.40046 15.1503 8.40046ZM6.59951 9.29986H3.90051C3.40351 9.29986 2.99951 9.70286 2.99951 10.1999V20.0999C2.99951 20.5969 3.40351 20.9999 3.90051 20.9999H6.59951C7.09651 20.9999 7.49951 20.5969 7.49951 20.0999V10.1999C7.49951 9.70286 7.09651 9.29986 6.59951 9.29986Z" fill="white"/>
</svg>
