<svg width="731" height="199" viewBox="0 0 731 199" fill="none" xmlns="http://www.w3.org/2000/svg">
<path d="M85.9783 40.5185C72.9333 62.8531 61.8648 81.037 61.2719 81.037C60.086 81.037 41.5067 48.6222 41.5067 46.6457C41.5067 46.0527 43.8786 45.4598 47.041 45.4598C51.1916 45.4598 53.3658 47.041 56.1329 52.3776C58.3071 56.1329 60.4813 59.2954 61.0742 59.2954C62.2601 59.2954 83.0135 24.7064 83.0135 22.7299C83.0135 22.1369 64.4343 21.7416 41.5067 21.7416C18.7769 21.7416 0 22.3346 0 22.9275C0 24.9041 60.086 128.473 61.2719 128.473C61.8648 128.473 76.2933 104.36 93.489 75.1075L124.52 21.544L118.393 10.8708C115.033 4.94129 111.673 4.11098e-06 110.882 4.11098e-06C110.092 4.11098e-06 99.0232 18.1839 85.9783 40.5185Z" fill="white"/>
<path d="M120.568 49.8081C108.116 71.1544 104.755 78.4675 106.139 80.8393C107.127 82.6181 111.673 90.7218 116.219 98.8255L124.323 113.649L113.254 132.624C102.186 151.598 101.988 151.796 98.6283 147.448C95.2682 143.495 95.2682 142.902 102.977 129.066C107.127 121.16 110.685 113.847 110.685 112.463C110.685 111.278 107.918 105.348 104.558 99.4185L98.233 88.5477L82.8162 114.835L67.3994 141.321L71.5501 148.238C73.7243 151.994 81.4327 165.236 88.5481 177.491C95.6635 189.745 101.988 199.035 102.779 198.244C103.57 197.453 115.033 177.886 128.276 154.761L152.389 113.056L142.309 96.0584L132.229 79.0604L141.321 62.2601C149.622 47.0409 151.006 45.4597 156.342 45.4597C159.505 45.4597 162.074 46.0527 162.074 46.8433C162.074 47.8315 158.121 54.947 153.378 63.0507L144.681 77.6769L150.611 87.7571C153.773 93.2913 157.133 98.6279 157.924 99.4185C159.307 100.802 199.035 34.5889 202.791 25.1017C203.976 21.9392 201.012 21.7416 170.376 21.7416H136.775L120.568 49.8081Z" fill="white"/>
<path d="M231.844 150.528C229.204 150.528 226.96 150.352 225.112 150V136.8C226.52 137.152 228.104 137.328 229.864 137.328C232.768 137.328 234.924 136.624 236.332 135.216C237.74 133.72 238.444 131.476 238.444 128.484V57.6H252.964V128.088C252.964 135.656 251.204 141.288 247.684 144.984C244.252 148.68 238.972 150.528 231.844 150.528ZM274.308 57.6H293.976L309.024 150H294.504L291.864 131.652V131.916H275.364L272.724 150H259.26L274.308 57.6ZM290.148 119.376L283.68 73.704H283.416L277.08 119.376H290.148ZM316.068 57.6H354.48V70.8H330.588V96.54H349.332V109.74H330.588V150H316.068V57.6ZM368.409 57.6H388.077L403.125 150H388.605L385.965 131.652V131.916H369.465L366.825 150H353.361L368.409 57.6ZM384.249 119.376L377.781 73.704H377.517L371.181 119.376H384.249ZM410.17 57.6H431.686C439.166 57.6 444.622 59.36 448.054 62.88C451.486 66.312 453.202 71.636 453.202 78.852V84.528C453.202 94.12 450.034 100.192 443.698 102.744V103.008C447.218 104.064 449.682 106.22 451.09 109.476C452.586 112.732 453.334 117.088 453.334 122.544V138.78C453.334 141.42 453.422 143.576 453.598 145.248C453.774 146.832 454.214 148.416 454.918 150H440.134C439.606 148.504 439.254 147.096 439.078 145.776C438.902 144.456 438.814 142.08 438.814 138.648V121.752C438.814 117.528 438.11 114.58 436.702 112.908C435.382 111.236 433.05 110.4 429.706 110.4H424.69V150H410.17V57.6ZM429.97 97.2C432.874 97.2 435.03 96.452 436.438 94.956C437.934 93.46 438.682 90.952 438.682 87.432V80.304C438.682 76.96 438.066 74.54 436.834 73.044C435.69 71.548 433.842 70.8 431.29 70.8H424.69V97.2H429.97ZM503.425 151.32C496.385 151.32 491.061 149.34 487.453 145.38C483.845 141.332 482.041 135.568 482.041 128.088V122.808H495.769V129.144C495.769 135.128 498.277 138.12 503.293 138.12C505.757 138.12 507.605 137.416 508.837 136.008C510.157 134.512 510.817 132.136 510.817 128.88C510.817 125.008 509.937 121.62 508.177 118.716C506.417 115.724 503.161 112.16 498.409 108.024C492.425 102.744 488.245 97.992 485.869 93.768C483.493 89.456 482.305 84.616 482.305 79.248C482.305 71.944 484.153 66.312 487.849 62.352C491.545 58.304 496.913 56.28 503.953 56.28C510.905 56.28 516.141 58.304 519.661 62.352C523.269 66.312 525.073 72.032 525.073 79.512V83.34H511.345V78.588C511.345 75.42 510.729 73.132 509.497 71.724C508.265 70.228 506.461 69.48 504.085 69.48C499.245 69.48 496.825 72.428 496.825 78.324C496.825 81.668 497.705 84.792 499.465 87.696C501.313 90.6 504.613 94.12 509.365 98.256C515.437 103.536 519.617 108.332 521.905 112.644C524.193 116.956 525.337 122.016 525.337 127.824C525.337 135.392 523.445 141.2 519.661 145.248C515.965 149.296 510.553 151.32 503.425 151.32ZM544.495 57.6H564.163L579.211 150H564.691L562.051 131.652V131.916H545.551L542.911 150H529.447L544.495 57.6ZM560.335 119.376L553.867 73.704H553.603L547.267 119.376H560.335ZM586.256 57.6H625.856V70.8H600.776V95.22H620.708V108.42H600.776V136.8H625.856V150H586.256V57.6ZM634.209 57.6H673.809V70.8H648.729V95.22H668.661V108.42H648.729V136.8H673.809V150H634.209V57.6ZM682.162 57.6H704.338C711.554 57.6 716.966 59.536 720.574 63.408C724.182 67.28 725.986 72.956 725.986 80.436V127.164C725.986 134.644 724.182 140.32 720.574 144.192C716.966 148.064 711.554 150 704.338 150H682.162V57.6ZM704.074 136.8C706.45 136.8 708.254 136.096 709.486 134.688C710.806 133.28 711.466 130.992 711.466 127.824V79.776C711.466 76.608 710.806 74.32 709.486 72.912C708.254 71.504 706.45 70.8 704.074 70.8H696.682V136.8H704.074Z" fill="white"/>
</svg>
